<svg width="98" height="87" viewBox="0 0 98 87" fill="none" xmlns="http://www.w3.org/2000/svg">
<g clip-path="url(#clip0_953_3174)">
<path fill-rule="evenodd" clip-rule="evenodd" d="M54.6602 0C78.5402 0 97.9102 19.36 97.9102 43.25C97.9102 67.14 78.5502 86.5 54.6602 86.5C30.7702 86.5 11.4102 67.14 11.4102 43.25C11.4202 19.36 30.7802 0 54.6602 0Z" fill="#FFB800"/>
<path d="M68.9899 44.2102V35.2002C68.9899 21.4602 58.1799 10.2002 44.6199 9.47018V9.43018H43.2199H36.8599H35.4599V9.47018C21.9099 10.2002 11.0999 21.4602 11.0999 35.2002V44.2102C-3.98011 53.6202 0.679889 70.5402 0.679889 70.5402C9.26989 83.5202 22.0099 78.6202 22.0099 78.6202V53.1502C23.3999 43.6002 16.3899 41.5702 15.6399 41.8802C15.5999 41.9002 15.5699 41.9102 15.5299 41.9302V35.2002C15.5299 23.4402 25.0999 13.8702 36.8599 13.8702H43.2199C54.9799 13.8702 64.5499 23.4402 64.5499 35.2002V41.9302C64.5099 41.9102 64.4799 41.9002 64.4399 41.8802C63.6899 41.5702 56.6799 43.5902 58.0699 53.1502V78.6302C58.0699 78.6302 70.8199 83.5302 79.3999 70.5502C79.4099 70.5402 84.0699 53.6202 68.9899 44.2102Z" fill="#353535"/>
<path d="M57.13 13.8602H22.96C22.96 8.96023 26.93 4.99023 31.83 4.99023H48.27C53.16 5.00023 57.13 8.97023 57.13 13.8602Z" fill="#353535"/>
<path d="M7.73009 55.2601C7.66009 54.8801 5.93009 45.8501 7.02009 35.4401C8.50009 21.4601 14.4301 11.8301 24.2001 7.6001L25.0801 9.6301C15.9701 13.5701 10.6401 22.3201 9.23009 35.6201C8.17009 45.7101 9.89009 54.7501 9.91009 54.8401L7.73009 55.2601Z" fill="#353535"/>
<path d="M72.2897 55.2603L70.1097 54.8404C70.1297 54.7504 71.8497 45.7204 70.7797 35.6304C69.3697 22.3304 64.0397 13.5804 54.9297 9.64035L55.8097 7.61035C65.5797 11.8404 71.5197 21.4704 72.9897 35.4504C74.0897 45.8604 72.3597 54.8803 72.2897 55.2603Z" fill="#353535"/>
</g>
<defs>
<clipPath id="clip0_953_3174">
<rect width="97.91" height="86.49" fill="white"/>
</clipPath>
</defs>
</svg>
