<svg width="1713" height="1716" viewBox="0 0 1713 1716" fill="none" xmlns="http://www.w3.org/2000/svg">
<path d="M1248.92 1193.17L1237.97 1205.07L1193.57 1164.25L1204.55 1152.34L1248.92 1193.17Z" fill="white" fill-opacity="0.1"/>
<path d="M503.109 506.999L492.155 518.901L447.788 478.073L458.741 466.171L503.109 506.999Z" fill="white" fill-opacity="0.1"/>
<path d="M738.908 1361.21L723.106 1357.68L736.3 1298.85L752.101 1302.38L738.908 1361.21Z" fill="white" fill-opacity="0.1"/>
<path d="M960.408 372.397L944.606 368.869L957.769 310.034L973.571 313.562L960.408 372.397Z" fill="white" fill-opacity="0.1"/>
<path d="M1016.44 1345.51L1001 1350.32L982.991 1292.77L998.424 1287.96L1016.44 1345.51Z" fill="white" fill-opacity="0.1"/>
<path d="M713.717 378.44L698.283 383.256L680.272 325.74L695.706 320.893L713.717 378.44Z" fill="white" fill-opacity="0.1"/>
<path d="M531.552 1191.73L490.713 1236.09L478.808 1225.14L519.647 1180.78L531.552 1191.73Z" fill="white" fill-opacity="0.1"/>
<path d="M1217.9 446.109L1177.06 490.465L1165.16 479.514L1205.99 435.158L1217.9 446.109Z" fill="white" fill-opacity="0.1"/>
<path d="M381.481 739.395L322.631 726.204L326.16 710.406L385.01 723.597L381.481 739.395Z" fill="white" fill-opacity="0.1"/>
<path d="M1370.55 960.839L1311.7 947.648L1315.23 931.851L1374.08 945.01L1370.55 960.839Z" fill="white" fill-opacity="0.1"/>
<path d="M395.902 985.655L338.341 1003.66L333.493 988.232L391.054 970.225L395.902 985.655Z" fill="white" fill-opacity="0.1"/>
<path d="M1363.18 683.014L1305.62 701.02L1300.81 685.59L1358.37 667.584L1363.18 683.014Z" fill="white" fill-opacity="0.1"/>
<path d="M1325.54 994.367L1357.75 1005.26L1356.59 1008.85L1324.31 997.956L1325.54 994.367Z" fill="white" fill-opacity="0.1"/>
<path d="M340.121 662.43L372.123 673.197L370.896 676.786L338.894 666.019L340.121 662.43Z" fill="white" fill-opacity="0.1"/>
<path d="M1306.33 1043.39L1337.23 1057.56L1335.66 1060.99L1304.73 1046.82L1306.33 1043.39Z" fill="white" fill-opacity="0.1"/>
<path d="M361.016 610.252L391.73 624.332L390.134 627.767L359.42 613.688L361.016 610.252Z" fill="white" fill-opacity="0.1"/>
<path d="M1282.09 1090.1L1311.36 1107.44L1309.43 1110.69L1280.16 1093.36L1282.09 1090.1Z" fill="white" fill-opacity="0.1"/>
<path d="M387.25 560.558L416.307 577.767L414.374 581.019L385.317 563.84L387.25 560.558Z" fill="white" fill-opacity="0.1"/>
<path d="M1253.09 1134.03L1280.4 1154.34L1278.16 1157.37L1250.82 1137.07L1253.09 1134.03Z" fill="white" fill-opacity="0.1"/>
<path d="M418.546 513.901L445.64 534.024L443.369 537.061L416.276 516.938L418.546 513.901Z" fill="white" fill-opacity="0.1"/>
<path d="M1219.68 1174.68L1244.72 1197.74L1242.17 1200.5L1217.1 1177.47L1219.68 1174.68Z" fill="white" fill-opacity="0.1"/>
<path d="M454.538 470.741L479.391 493.594L476.814 496.355L451.96 473.533L454.538 470.741Z" fill="white" fill-opacity="0.1"/>
<path d="M1182.22 1211.64L1204.68 1237.16L1201.85 1239.68L1179.33 1214.15L1182.22 1211.64Z" fill="white" fill-opacity="0.1"/>
<path d="M494.855 431.6L517.161 456.907L514.308 459.391L491.971 434.084L494.855 431.6Z" fill="white" fill-opacity="0.1"/>
<path d="M1141.04 1244.46L1160.74 1272.22L1157.67 1274.4L1137.94 1246.67L1141.04 1244.46Z" fill="white" fill-opacity="0.1"/>
<path d="M539.039 396.845L558.584 424.36L555.485 426.569L535.909 399.053L539.039 396.845Z" fill="white" fill-opacity="0.1"/>
<path d="M1096.7 1272.81L1113.39 1302.47L1110.11 1304.31L1093.39 1274.68L1096.7 1272.81Z" fill="white" fill-opacity="0.1"/>
<path d="M586.597 366.937L603.166 396.354L599.852 398.195L583.284 368.777L586.597 366.937Z" fill="white" fill-opacity="0.1"/>
<path d="M1049.63 1296.36L1063.13 1327.62L1059.67 1329.09L1046.14 1297.87L1049.63 1296.36Z" fill="white" fill-opacity="0.1"/>
<path d="M637.04 342.151L650.448 373.133L646.95 374.636L633.542 343.654L637.04 342.151Z" fill="white" fill-opacity="0.1"/>
<path d="M1000.36 1314.89L1010.51 1347.35L1006.89 1348.48L996.736 1316L1000.36 1314.89Z" fill="white" fill-opacity="0.1"/>
<path d="M689.784 322.764L699.879 354.973L696.258 356.108L686.164 323.899L689.784 322.764Z" fill="white" fill-opacity="0.1"/>
<path d="M949.424 1328.14L956.112 1361.49L952.4 1362.25L945.68 1328.88L949.424 1328.14Z" fill="white" fill-opacity="0.1"/>
<path d="M744.277 308.991L750.935 342.12L747.223 342.826L740.534 309.727L744.277 308.991Z" fill="white" fill-opacity="0.1"/>
<path d="M897.355 1336L900.546 1369.89L896.772 1370.23L893.581 1336.36L897.355 1336Z" fill="white" fill-opacity="0.1"/>
<path d="M799.905 301.016L803.066 334.635L799.292 334.973L796.131 301.353L799.905 301.016Z" fill="white" fill-opacity="0.1"/>
<path d="M844.764 1338.39L844.396 1372.41L840.622 1372.38L840.99 1338.36L844.764 1338.39Z" fill="white" fill-opacity="0.1"/>
<path d="M856.055 298.868L855.718 332.642L851.913 332.58L852.281 298.838L856.055 298.868Z" fill="white" fill-opacity="0.1"/>
<path d="M792.235 1335.26L788.307 1369.06L784.533 1368.63L788.461 1334.83L792.235 1335.26Z" fill="white" fill-opacity="0.1"/>
<path d="M912.143 302.611L908.247 336.169L904.503 335.709L908.369 302.181L912.143 302.611Z" fill="white" fill-opacity="0.1"/>
<path d="M509.184 1206.85L486.141 1231.88L483.349 1229.34L506.392 1204.31L509.184 1206.85Z" fill="white" fill-opacity="0.1"/>
<path d="M1213.33 441.907L1190.47 466.753L1187.68 464.177L1210.54 439.33L1213.33 441.907Z" fill="white" fill-opacity="0.1"/>
<path d="M740.288 1326.67L732.863 1359.86L729.15 1359.03L736.606 1325.84L740.288 1326.67Z" fill="white" fill-opacity="0.1"/>
<path d="M967.526 312.212L960.162 345.157L956.45 344.329L963.814 311.384L967.526 312.212Z" fill="white" fill-opacity="0.1"/>
<path d="M689.569 1312.68L678.677 1344.92L675.087 1343.73L685.949 1311.46L689.569 1312.68Z" fill="white" fill-opacity="0.1"/>
<path d="M1021.59 327.519L1010.82 359.544L1007.23 358.317L1018 326.323L1021.59 327.519Z" fill="white" fill-opacity="0.1"/>
<path d="M640.538 1293.48L626.362 1324.4L622.926 1322.84L637.101 1291.89L640.538 1293.48Z" fill="white" fill-opacity="0.1"/>
<path d="M1073.75 348.409L1059.7 379.114L1056.26 377.519L1070.31 346.813L1073.75 348.409Z" fill="white" fill-opacity="0.1"/>
<path d="M593.808 1269.25L576.472 1298.51L573.22 1296.61L590.556 1267.31L593.808 1269.25Z" fill="white" fill-opacity="0.1"/>
<path d="M1123.46 374.636L1106.27 403.716L1103.02 401.753L1120.2 372.703L1123.46 374.636Z" fill="white" fill-opacity="0.1"/>
<path d="M549.87 1240.26L529.558 1267.59L526.52 1265.32L546.832 1238.02L549.87 1240.26Z" fill="white" fill-opacity="0.1"/>
<path d="M1170.16 405.925L1150.03 433.041L1146.99 430.772L1167.12 403.655L1170.16 405.925Z" fill="white" fill-opacity="0.1"/>
<path d="M472.242 1169.4L446.713 1191.88L444.197 1189.03L469.725 1166.55L472.242 1169.4Z" fill="white" fill-opacity="0.1"/>
<path d="M1252.48 482.214L1227.17 504.545L1224.65 501.693L1249.99 479.361L1252.48 482.214Z" fill="white" fill-opacity="0.1"/>
<path d="M439.411 1128.26L411.643 1147.96L409.464 1144.86L437.202 1125.17L439.411 1128.26Z" fill="white" fill-opacity="0.1"/>
<path d="M1287.21 526.386L1259.69 545.926L1257.51 542.828L1285.03 523.288L1287.21 526.386Z" fill="white" fill-opacity="0.1"/>
<path d="M411.029 1083.91L381.389 1100.59L379.518 1097.31L409.188 1080.62L411.029 1083.91Z" fill="white" fill-opacity="0.1"/>
<path d="M1317.16 573.933L1287.73 590.497L1285.86 587.215L1315.29 570.62L1317.16 573.933Z" fill="white" fill-opacity="0.1"/>
<path d="M387.465 1036.85L356.23 1050.35L354.726 1046.88L385.961 1033.39L387.465 1036.85Z" fill="white" fill-opacity="0.1"/>
<path d="M1341.95 624.363L1310.96 637.768L1309.46 634.271L1340.45 620.896L1341.95 624.363Z" fill="white" fill-opacity="0.1"/>
<path d="M368.963 987.587L336.469 997.741L335.365 994.152L367.827 983.968L368.963 987.587Z" fill="white" fill-opacity="0.1"/>
<path d="M1361.34 677.093L1329.09 687.185L1327.99 683.566L1360.21 673.474L1361.34 677.093Z" fill="white" fill-opacity="0.1"/>
<path d="M355.708 936.667L322.325 943.384L321.588 939.673L354.941 932.955L355.708 936.667Z" fill="white" fill-opacity="0.1"/>
<path d="M1375.09 731.572L1341.98 738.229L1341.25 734.517L1374.35 727.861L1375.09 731.572Z" fill="white" fill-opacity="0.1"/>
<path d="M347.822 884.641L313.948 887.832L313.58 884.028L347.485 880.868L347.822 884.641Z" fill="white" fill-opacity="0.1"/>
<path d="M1383.1 787.217L1349.47 790.346L1349.1 786.573L1382.73 783.413L1383.1 787.217Z" fill="white" fill-opacity="0.1"/>
<path d="M345.429 832.064L311.432 831.696L311.463 827.892L345.49 828.26L345.429 832.064Z" fill="white" fill-opacity="0.1"/>
<path d="M1385.21 843.353L1351.46 842.985L1351.49 839.181L1385.28 839.549L1385.21 843.353Z" fill="white" fill-opacity="0.1"/>
<path d="M348.59 779.518L314.777 775.591L315.206 771.849L349.019 775.745L348.59 779.518Z" fill="white" fill-opacity="0.1"/>
<path d="M1381.47 899.396L1347.93 895.531L1348.36 891.758L1381.93 895.654L1381.47 899.396Z" fill="white" fill-opacity="0.1"/>
<path d="M357.18 727.615L323.981 720.161L324.81 716.48L358.009 723.904L357.18 727.615Z" fill="white" fill-opacity="0.1"/>
<path d="M1371.9 954.765L1338.94 947.403L1339.77 943.691L1372.73 951.084L1371.9 954.765Z" fill="white" fill-opacity="0.1"/>
<path d="M850.501 1577.38C451.377 1577.38 126.659 1252.74 126.659 853.721C126.659 454.698 451.377 130.093 850.501 130.093C1249.63 130.093 1574.31 454.698 1574.31 853.721C1574.31 1252.74 1249.63 1577.38 850.501 1577.38ZM850.501 133.836C453.464 133.836 130.434 456.784 130.434 853.721C130.434 1250.66 453.464 1573.61 850.501 1573.61C1247.54 1573.61 1570.57 1250.69 1570.57 853.721C1570.57 456.753 1247.54 133.836 850.501 133.836Z" fill="white" fill-opacity="0.1"/>
<path d="M850.501 1577.38C451.377 1577.38 126.659 1252.74 126.659 853.721C126.659 454.698 451.377 130.093 850.501 130.093C1249.63 130.093 1574.31 454.698 1574.31 853.721C1574.31 1252.74 1249.63 1577.38 850.501 1577.38ZM850.501 133.836C453.464 133.836 130.434 456.784 130.434 853.721C130.434 1250.66 453.464 1573.61 850.501 1573.61C1247.54 1573.61 1570.57 1250.69 1570.57 853.721C1570.57 456.753 1247.54 133.836 850.501 133.836Z" fill="white" fill-opacity="0.1"/>
<path d="M856.485 1712.26C386.268 1712.26 3.74316 1329.03 3.74316 857.985C3.74316 386.937 386.268 3.74231 856.485 3.74231C1326.7 3.74231 1709.26 386.906 1709.26 857.985C1709.26 1329.06 1326.7 1712.26 856.485 1712.26ZM856.485 8.19025C388.723 8.19025 8.16133 389.421 8.16133 857.893C8.16133 1326.36 388.631 1707.59 856.485 1707.59C1324.34 1707.59 1704.81 1326.36 1704.81 857.893C1704.81 389.421 1324.25 8.19025 856.485 8.19025Z" fill="white" fill-opacity="0.1"/>
<path d="M856.485 1716C384.212 1716 0 1331.09 0 857.985C0 384.881 384.212 0 856.485 0C1328.76 0 1712.97 384.912 1712.97 857.985C1712.97 1331.06 1328.76 1716 856.485 1716ZM856.485 11.9327C390.779 11.9327 11.905 391.477 11.905 857.985C11.905 1324.49 390.717 1704.07 856.485 1704.07C1322.25 1704.07 1701.09 1324.52 1701.09 857.985C1701.09 391.446 1322.19 11.9327 856.485 11.9327Z" fill="white" fill-opacity="0.1"/>
<path d="M850.501 1643.97C414.803 1643.97 60.0771 1289.46 60.0771 853.721C60.0771 417.98 414.65 63.4977 850.501 63.4977C1286.35 63.4977 1640.93 417.98 1640.93 853.721C1640.93 1289.46 1286.35 1643.97 850.501 1643.97ZM850.501 67.2707C416.736 67.2707 63.8204 420.035 63.8204 853.721C63.8204 1287.41 416.675 1640.2 850.501 1640.2C1284.33 1640.2 1637.18 1287.44 1637.18 853.721C1637.18 420.005 1284.27 67.2707 850.501 67.2707Z" fill="white" fill-opacity="0.1"/>
<path d="M850.501 1606.64C435.238 1606.64 97.4185 1268.88 97.4185 853.721C97.4185 438.563 435.238 100.829 850.501 100.829C1265.76 100.829 1603.58 438.594 1603.58 853.721C1603.58 1268.85 1265.76 1606.64 850.501 1606.64ZM850.501 115.829C443.553 115.829 112.453 446.845 112.453 853.69C112.453 1260.53 443.553 1591.55 850.501 1591.55C1257.45 1591.55 1588.55 1260.57 1588.55 853.69C1588.55 446.815 1257.45 115.86 850.501 115.86V115.829Z" fill="white" fill-opacity="0.1"/>
<g clip-path="url(#clip0_388_415)">
<path d="M500.314 926.143L508.562 958.377C508.765 959.165 508.964 959.943 509.167 960.747L510.295 965.141C509.773 963.1 509.736 960.966 509.214 958.946C509.214 959.009 509.214 959.076 509.214 959.144C509.214 959.353 509.214 959.63 509.214 959.838C508.948 959.463 508.948 959.463 500.414 926.112C499.281 921.665 499.062 920.778 498.968 919.186C498.968 919.124 498.968 919.056 498.968 918.993L498.446 916.984C498.533 918.567 498.765 920.14 499.14 921.681L500.283 926.138L500.314 926.143Z" fill="#FFB800" fill-opacity="0.1"/>
<path d="M1060.81 858.497C1060.81 966.884 972.932 1054.74 864.543 1054.74C756.155 1054.74 668.281 966.905 668.281 858.497C668.281 750.09 756.145 662.256 864.543 662.256C896.772 662.206 928.512 670.131 956.933 685.325C958.603 686.207 960.263 687.131 961.902 688.07C973.911 694.942 985.161 703.063 995.465 712.297C998.531 715.043 1001.5 717.88 1004.38 720.81C1040.6 757.48 1060.88 806.961 1060.81 858.497Z" fill="url(#paint0_radial_388_415)" fill-opacity="0.1" stroke="#FFB800" stroke-opacity="0.1" stroke-miterlimit="10"/>
<path d="M1196 733.336C1197.39 735.164 1198.58 737.134 1199.56 739.213L1200.08 741.222L1200 741.039C1199.9 740.768 1199.76 740.511 1199.6 740.272C1199.53 740.638 1199.52 740.705 1200.41 744.202L1208.09 774.202C1209.22 778.639 1209.38 778.999 1210.23 780.987L1210.3 781.17L1210.82 783.137C1210.04 780.957 1208.83 778.957 1207.26 777.255L1206.73 775.293L1206.87 775.455C1207.04 775.678 1207.23 775.888 1207.43 776.081H1207.69C1207.66 775.638 1207.64 775.288 1206.84 772.167L1199.17 742.162C1198.01 737.668 1197.73 736.942 1196.65 735.518L1196.51 735.351L1195.99 733.346L1196 733.336Z" fill="#FFB800" fill-opacity="0.1"/>
<path d="M1187.57 726.045C1191.47 729.025 1191.47 729.025 1193.98 731.123L1194.5 733.127L1194.34 732.971C1193.76 732.449 1193.64 732.396 1193.34 732.323C1193.12 732.574 1192.98 732.72 1193.9 736.363L1201.58 766.368C1202.74 770.836 1203.09 771.457 1204.57 772.923L1204.73 773.08L1205.25 775.048C1203.46 772.951 1201.28 771.226 1198.83 769.969L1198.31 768.002L1198.53 768.143C1199.48 768.738 1199.57 768.717 1199.94 768.665C1200.1 768.346 1200.23 768.091 1199.34 764.609L1191.67 734.604C1190.58 730.429 1190.2 729.474 1188.3 728.2L1188.09 728.059L1187.57 726.055V726.045Z" fill="#FFB800" fill-opacity="0.1"/>
<path d="M1175.15 719.949C1176.19 720.434 1182.76 723.451 1184.4 724.166L1184.93 726.17L1184.69 726.034C1182.38 724.865 1182.38 725.622 1183.4 729.688L1191.07 759.703C1192.2 764.035 1192.64 764.745 1194.9 766.008L1195.14 766.139L1195.66 768.106C1192.82 766.201 1189.69 764.773 1186.39 763.879L1185.87 761.916L1186.17 762.031C1188.73 762.981 1188.91 762.553 1187.82 758.221L1180.15 728.221C1179.01 723.837 1178.5 723.091 1175.97 722.073L1175.67 721.958L1175.15 719.954L1175.15 719.949Z" fill="#FFB800" fill-opacity="0.1"/>
<path d="M1107.36 709.427C1111.79 709.818 1121 710.345 1125.78 710.424L1126.3 712.428L1125.78 712.391C1120.98 712.057 1120.76 712.84 1121.78 716.979L1129.46 746.979C1130.62 751.347 1131.35 751.948 1136 752.344L1136.52 752.386L1137.05 754.348C1130.95 753.484 1124.78 753.15 1118.63 753.351L1118.1 751.384H1118.67C1123.63 751.509 1124.12 750.977 1123.04 746.608L1115.37 716.608C1114.21 712.256 1113.37 711.629 1108.45 711.431H1107.88L1107.36 709.427H1107.36Z" fill="#FFB800" fill-opacity="0.1"/>
<path d="M1051.52 710.544C1056.03 710.544 1062.89 710.21 1067.49 709.714L1068.01 711.718H1067.49C1062.96 711.937 1061.23 712.83 1064.23 717.125C1068.41 722.793 1074.72 731.353 1084.11 744.416C1090.56 716.013 1090.58 714.928 1090.59 714.213C1090.59 712.073 1089.78 711.191 1084.51 711.238L1083.99 709.234C1089.36 709.448 1098.6 709.479 1103.42 709.301L1103.94 711.306C1100.04 711.306 1099.24 713.205 1098.72 715.298C1097.06 722.767 1095.01 732.062 1089.61 753.811L1088.36 753.842C1070.03 729.176 1058.49 714.432 1058.45 714.39C1057.22 712.986 1055.78 712.569 1052.05 712.527L1051.53 710.523L1051.52 710.544Z" fill="#FFB800" fill-opacity="0.1"/>
<path d="M598.649 830.042C602.611 828.414 608.818 825.403 613.098 823.043L613.62 825.048L613.098 825.288C608.922 827.292 607.314 828.941 610.175 832.511C614.058 837.026 619.92 843.847 629.347 854.635C630.391 848.983 632.479 837.219 635.318 822.475C635.645 821.065 635.851 819.629 635.934 818.184C635.934 816.154 635.543 815.11 629.697 817.662L629.175 815.658C634.822 813.482 644.432 809.354 650.153 806.645L650.675 808.649C646.222 810.617 645.288 813.111 644.651 815.711C641.906 828.289 638.805 842.689 634.796 862.715L633.559 863.278C628.981 858.299 618.265 846.634 605.294 832.146C605.169 832.005 605.007 831.822 604.871 831.697C603.692 830.627 602.46 830.695 599.156 832.036L598.634 830.027L598.649 830.042Z" fill="#FFB800" fill-opacity="0.1"/>
<path d="M575.547 842.167C580.182 839.917 589.379 835.037 594.474 832.13L594.996 834.134L594.406 834.432C589.353 837.041 588.805 838.012 589.87 842.381L597.548 872.386C598.712 876.733 599.506 876.958 604.626 874.39L605.221 874.087L605.743 876.055C599.193 878.924 592.866 882.279 586.816 886.091L586.294 884.129L586.816 883.831C591.561 881.164 592.036 880.272 590.95 875.883L583.272 845.877C582.119 841.556 581.309 841.311 576.596 843.879L576.074 844.171L575.552 842.167H575.547Z" fill="#FFB800" fill-opacity="0.1"/>
<path d="M552.501 855.888C556.427 853.706 564.199 848.983 568.5 846.18L569.022 848.184L568.5 848.477C564.199 851.008 563.755 851.963 564.846 856.337L572.519 886.337C573.678 890.684 574.372 890.919 578.741 888.424L579.263 888.132L579.785 890.1C574.184 892.867 568.832 896.116 563.792 899.807L563.27 897.84L563.714 897.558C567.691 894.98 568.056 894.098 566.976 889.729L559.298 859.724C558.149 855.397 557.445 855.142 553.488 857.636L553.05 857.918L552.528 855.914L552.501 855.888Z" fill="#FFB800" fill-opacity="0.1"/>
<path d="M500.758 905.491C501.593 904.04 502.997 901.06 503.41 900.12L503.932 902.125L503.822 902.318C502.966 903.951 502.83 905.319 504.287 909.103C506.244 913.936 509.198 921.237 514.047 932.406C512.654 920.632 512.121 908.763 510.211 897.046C509.919 895.272 509.579 894.056 508.097 895.893L507.888 896.164L507.366 894.16C508.932 892.427 512.669 887.975 513.938 886.373L514.46 888.377C512.951 890.12 512.967 892.553 513.124 895.094C514.168 909.077 515.211 922.198 517.221 940.762L516.908 941.222C511.532 929.259 507.732 920.345 502.872 908.278C502.428 907.172 502.319 907.098 502.006 906.869C501.703 906.947 501.593 906.978 501.27 907.511L500.748 905.501L500.758 905.491Z" fill="#FFB800" fill-opacity="0.1"/>
<path d="M498.55 914.228C498.922 911.804 499.46 909.408 500.158 907.057L500.68 909.061C500.68 909.134 500.633 909.207 500.607 909.275C500.007 911.154 500.085 911.952 501.202 916.404L508.88 946.404C509.731 949.713 509.924 949.969 510.138 950.256C510.483 950.126 510.504 950.12 510.827 949.212L510.905 948.993L511.427 950.961C510.406 953.216 509.858 955.657 509.82 958.132L509.298 956.164V955.961C509.465 954.009 509.46 953.44 508.301 948.883L500.628 918.889C499.793 915.627 499.62 915.35 499.438 915.058C499.161 915.251 499.161 915.251 499.077 916.013V916.217L498.556 914.212L498.55 914.228Z" fill="#FFB800" fill-opacity="0.1"/>
<path d="M1130.48 817.683C1124.65 821.394 1118.58 824.722 1112.31 827.647L1112.84 829.651L1113.41 829.348C1118.34 826.796 1119.11 827.02 1120.26 831.332L1127.93 861.331C1129.01 865.736 1128.49 866.707 1123.63 869.301L1123.06 869.604L1123.58 871.572C1130.94 867.25 1134.6 865.204 1141.74 861.608L1141.22 859.64L1140.69 859.933C1136.18 862.474 1135.4 862.224 1134.23 857.845L1126.58 827.866C1125.53 823.508 1125.94 822.647 1130.49 819.98L1131.01 819.688L1130.49 817.683" fill="#FFB800" fill-opacity="0.1"/>
<path d="M1186.96 775.737C1184.42 778.939 1181.51 781.829 1178.29 784.348L1178.81 786.352L1179.1 786.086C1181.55 783.894 1182.01 784.16 1183.13 788.461L1190.78 818.461C1191.82 822.636 1191.82 823.68 1189.29 826.044L1189 826.305L1189.52 828.273C1193.54 824.098 1194.49 823.096 1198.2 819.661L1197.67 817.699L1197.45 817.944C1195.36 820.105 1194.93 819.802 1193.8 815.465L1186.12 785.465C1184.99 780.982 1185.26 780.246 1187.22 777.991L1187.45 777.741L1186.93 775.737" fill="#FFB800" fill-opacity="0.1"/>
<path d="M1195.66 764.301C1194.14 767.26 1192.2 769.978 1189.88 772.365L1190.4 774.369L1190.6 774.129C1192.27 772.177 1192.62 772.187 1193.78 776.655L1201.44 806.676C1202.56 811.107 1202.49 811.942 1200.82 814.098L1200.61 814.343L1201.13 816.305C1204.79 811.123 1204.79 811.123 1206.91 808.242L1206.39 806.279L1206.25 806.509C1204.94 808.523 1204.57 808.174 1203.45 803.863L1195.78 773.863C1194.65 769.374 1194.77 768.701 1196.02 766.556L1196.16 766.321L1195.64 764.317" fill="#FFB800" fill-opacity="0.1"/>
<path d="M510.979 967.391C510.723 966.655 510.53 966.049 510.295 965.141L509.167 960.747C509.94 963.763 510.06 964.223 510.41 965.24L510.472 965.423L510.994 967.391" fill="#FFB800" fill-opacity="0.1"/>
<path d="M500.252 925.47C500.252 925.407 500.205 925.35 500.184 925.287C500.09 925.011 499.996 924.734 499.897 924.463C499.897 924.504 499.897 924.504 500.315 926.143L499.171 921.686C499.325 922.29 499.515 922.885 499.74 923.466L500.262 925.47" fill="#FFB800" fill-opacity="0.1"/>
<path d="M504.945 931.66C503.217 930.027 501.819 928.078 500.826 925.919L501.348 927.923L501.442 928.101C502.345 929.828 502.559 930.235 503.734 934.807L511.401 964.818C512.242 968.111 512.247 968.429 512.257 968.769C511.97 968.648 511.97 968.648 511.652 968.064L511.563 967.886L512.085 969.854C513.315 971.867 514.691 973.786 516.204 975.595L515.682 973.628L515.525 973.466C514.298 972.078 513.996 971.331 512.837 966.827L505.159 936.827C504.323 933.555 504.344 933.247 504.37 932.892C504.731 932.892 504.731 932.892 505.305 933.513L505.456 933.675L504.934 931.671" fill="#FFB800" fill-opacity="0.1"/>
<path d="M549.453 950.068C544.916 949.582 540.443 948.622 536.106 947.203L536.628 949.207L536.999 949.306C540.334 950.193 540.898 950.872 542.031 955.178L549.699 985.173C550.743 989.285 550.623 990.089 547.214 989.254L546.843 989.16L547.365 991.122C552.831 992.109 554.704 992.511 560.718 993.988L560.196 992.025L559.768 991.947C556.161 991.269 555.503 990.569 554.344 986.169L546.661 956.175C545.586 951.853 545.904 951.383 549.537 951.999L549.965 952.072L549.443 950.068" fill="#FFB800" fill-opacity="0.1"/>
<path d="M592.48 954.071C587.674 954.24 582.862 954.007 578.094 953.377L578.616 955.381L579.279 955.428C584.316 955.825 583.455 957.86 582.891 959.212C580.803 963.993 580.119 965.606 577.943 970.898C563.327 954.656 563.066 954.348 568.354 954.562H568.85L568.364 952.558C563.766 952.213 557.361 951.415 553.467 950.705L553.989 952.709L554.381 952.772C556.286 953.142 557.445 954.29 560.712 958.335C565.932 964.713 568.813 968.153 574.545 974.755C572.243 980.099 570.891 985.856 567.759 990.84C566.814 992.338 565.577 992.792 563.348 992.469L562.962 992.406L563.484 994.436C567.48 994.698 571.451 995.244 575.369 996.07L574.879 994.045L574.247 993.977C571.053 993.56 570.071 992.411 570.959 990.11C572.786 985.193 573.897 982.281 576.142 976.707C580.939 982.046 586.785 986.43 590.585 992.667C591.739 994.562 590.674 995.428 587.422 995.24H587.14L586.581 995.204L587.103 997.171C587.25 997.171 601.771 997.912 605.373 998.064L604.908 996.101H604.36C602.429 995.945 600.309 994.536 597.052 991.279L596.776 991.002C592.344 986.456 587.317 981.3 579.519 972.735C587.39 955.987 587.39 955.987 592.438 956.096H592.96L592.438 954.092" fill="#FFB800" fill-opacity="0.1"/>
<path d="M721.376 945.292C714.955 946.53 708.466 947.389 701.943 947.866L702.465 949.87L703.389 949.755C710.316 948.967 708.938 951.321 708.03 952.886C704.558 958.659 702.878 961.462 699.85 966.519C680.37 952.813 680.37 952.813 687.443 951.644C687.766 951.592 688.194 951.529 688.518 951.488L688.048 949.478C681.607 950.282 671.183 951.289 665.295 951.686L665.817 953.69L666.439 953.638C669.482 953.466 671.136 954.363 675.662 957.766C682.818 963.09 686.733 965.971 694.453 971.545C680.542 993.158 680.542 993.158 674.67 993.695L674.049 993.747L674.571 995.772C680.69 994.858 686.855 994.281 693.038 994.045L692.553 992.015L691.608 992.109C686.79 992.547 685.438 991.587 687.098 988.883C690.643 982.991 692.746 979.489 696.598 973.158C718.657 988.648 718.657 988.648 712.127 989.838C711.407 989.969 710.718 990.057 710.305 990.11L709.522 990.204L710.044 992.166C714.946 991.493 714.946 991.493 734.749 988.909L734.29 986.936L733.58 987.036C731.075 987.286 728.387 986.279 724.305 983.554L723.96 983.325C718.339 979.494 711.955 975.146 701.881 968.048C714.826 948.34 714.826 948.34 721.147 947.396L721.846 947.297L721.324 945.292" fill="#FFB800" fill-opacity="0.1"/>
<path d="M869.268 915.715C862.464 917.783 855.555 919.49 848.571 920.83L849.093 922.834L850.101 922.594C857.534 920.882 856.01 923.513 855.002 925.251C852.497 929.457 850.33 933.08 845.941 940.386C825.15 928.805 825.15 928.805 832.787 926.681C833.178 926.571 833.747 926.43 833.961 926.378L833.497 924.358C826.601 926.039 814.57 928.68 808.259 929.906L808.781 931.911L809.481 931.764C812.727 931.164 814.439 931.655 819.644 934.692C827.656 939.311 831.503 941.519 839.964 946.326C824.232 970.653 824.232 970.653 817.456 972.124L816.773 972.271L817.295 974.296C824.078 972.459 830.951 970.971 837.887 969.838L837.422 967.798L836.378 968.033C831.038 969.17 829.592 968.361 831.477 965.329C835.976 958.022 838.701 953.575 842.282 947.719C866.011 960.804 866.011 960.804 858.395 962.98C857.816 963.147 857.221 963.288 856.787 963.393L855.947 963.596L856.5 965.548C864.643 963.487 864.643 963.487 882.813 959.061L882.359 957.077L881.607 957.271C878.997 957.834 876.158 957.124 871.888 954.823L871.517 954.63C865.562 951.352 858.807 947.641 848.18 941.691C862.503 919.63 862.503 919.63 869.059 917.907L869.795 917.725L869.273 915.715" fill="#FFB800" fill-opacity="0.1"/>
<path d="M903.53 906.577C895.821 909.077 884.833 912.036 876.815 913.774L877.337 915.778L878.136 915.575C885.13 913.79 886.164 914.108 887.338 918.44L895.011 948.445C896.055 952.829 895.262 953.664 888.362 955.527L887.558 955.736L888.08 957.704C898.77 954.478 904.511 952.928 914.794 950.501L914.272 948.534L913.479 948.753C906.605 950.632 905.488 950.287 904.308 945.94L896.63 915.935C895.586 911.571 896.322 910.773 903.253 908.8L904.052 908.581L903.53 906.577Z" fill="#FFB800" fill-opacity="0.1"/>
<path d="M1046.99 857.824C1041.14 860.588 1035.13 862.998 1028.99 865.042L1029.51 867.047L1030.39 866.707C1036.91 864.233 1035.61 867.104 1034.86 868.826L1034.81 868.952C1031.67 875.736 1030.71 877.824 1027.16 885.392C1007.91 875.476 1007.91 875.476 1016.02 872.214L1015.55 870.194C1009.29 872.642 998.514 876.566 992.438 878.602L992.96 880.606L993.597 880.382C996.598 879.411 998.295 879.745 1003.11 882.271C1013.64 887.741 1013.64 887.741 1021.95 892.067C1008.25 918.654 1008.25 918.654 1001.73 921.003L1001.08 921.227L1001.6 923.257C1007.81 920.651 1014.14 918.372 1020.58 916.431L1020.11 914.385L1019.16 914.734C1014.51 916.394 1013.04 915.836 1014.38 912.934C1014.44 912.798 1014.54 912.615 1014.61 912.48C1017.84 905.971 1020.03 901.561 1024.06 893.268C1046.16 904.468 1046.16 904.468 1037.49 907.881L1036.74 908.174C1036.91 908.758 1037.12 909.536 1037.27 910.121C1040.64 908.753 1040.64 908.753 1060.16 900.95L1059.7 898.967L1059.07 899.228C1056.82 900.048 1054.35 899.583 1050.54 897.631L1050.2 897.474C1045.68 895.105 1039.5 891.859 1029.18 886.514C1041.39 862.428 1041.39 862.428 1046.84 860.126L1047.49 859.86L1046.97 857.856" fill="#FFB800" fill-opacity="0.1"/>
<path d="M1075.6 845.496C1068.38 849.118 1060.98 852.348 1053.42 855.173L1053.94 857.177L1054.61 856.89C1060.5 854.447 1061.4 854.687 1062.55 859.009L1070.23 889.009C1071.25 893.184 1070.92 894.228 1064.84 896.838L1064.16 897.119L1064.68 899.087C1073.82 894.776 1078.39 892.787 1086.86 889.411L1086.34 887.448L1085.69 887.74C1079.79 890.35 1079.06 889.776 1077.94 885.653L1070.27 855.653C1069.23 851.29 1069.79 850.408 1075.49 847.824L1076.14 847.532L1075.61 845.528" fill="#FFB800" fill-opacity="0.1"/>
<path d="M1104.75 831.545C1098.11 835.266 1091.26 838.6 1084.23 841.53L1084.75 843.534L1085.38 843.242C1090.85 840.716 1091.69 840.94 1092.85 845.256L1100.52 875.261C1101.57 879.437 1101.25 880.481 1095.6 883.195L1094.97 883.487L1095.49 885.454C1104.1 880.95 1108.13 878.988 1116.02 875.47L1115.49 873.502L1114.9 873.805C1109.71 876.383 1108.83 876.138 1107.66 871.785L1099.99 841.785C1098.94 837.422 1099.46 836.535 1104.68 833.852L1105.28 833.55L1104.76 831.545" fill="#FFB800" fill-opacity="0.1"/>
</g>
<defs>
<radialGradient id="paint0_radial_388_415" cx="0" cy="0" r="1" gradientUnits="userSpaceOnUse" gradientTransform="translate(864.538 858.497) scale(196.263 196.242)">
<stop stop-color="white" stop-opacity="0"/>
<stop offset="0.62" stop-color="white" stop-opacity="0.01"/>
<stop offset="0.65" stop-color="white" stop-opacity="0.01"/>
<stop offset="0.72" stop-color="white" stop-opacity="0.02"/>
<stop offset="0.77" stop-color="white" stop-opacity="0.05"/>
<stop offset="0.81" stop-color="white" stop-opacity="0.11"/>
<stop offset="0.85" stop-color="white" stop-opacity="0.2"/>
<stop offset="0.88" stop-color="white" stop-opacity="0.3"/>
<stop offset="0.91" stop-color="white" stop-opacity="0.43"/>
<stop offset="0.94" stop-color="white" stop-opacity="0.59"/>
<stop offset="0.97" stop-color="white" stop-opacity="0.77"/>
<stop offset="1" stop-color="white"/>
</radialGradient>
<clipPath id="clip0_388_415">
<rect width="719" height="393" fill="white" transform="translate(497 662)"/>
</clipPath>
</defs>
</svg>
