<svg width="155" height="87" viewBox="0 0 155 87" fill="none" xmlns="http://www.w3.org/2000/svg">
<path d="M16.8581 23.4302C15.6417 21.4087 13.4337 20.0565 10.9083 20.0565C7.07394 20.0565 3.9668 23.1717 3.9668 27.016C3.9668 29.3226 5.08405 31.364 6.8095 32.63C7.9598 33.4717 9.37454 33.9755 10.9083 33.9755C12.561 33.9755 14.0683 33.3988 15.2583 32.4311C15.6682 32.1064 16.0318 31.7352 16.3491 31.3242C17.2878 30.1445 17.8498 28.6465 17.8498 27.016C17.8498 25.7036 17.4862 24.4775 16.8581 23.4302ZM15.1922 27.3474C15.0269 29.528 13.2287 31.258 11.0273 31.3176C10.9876 31.3242 10.9479 31.3242 10.9083 31.3242C8.65395 31.3242 6.79628 29.5678 6.62439 27.3474C6.61778 27.2414 6.61117 27.1287 6.61117 27.016C6.61117 24.6432 8.54156 22.7078 10.9083 22.7078C10.9479 22.7078 10.9876 22.7078 11.0273 22.7144V22.7078H11.0471C11.0669 22.7078 11.0802 22.7078 11.0934 22.7144C11.3446 22.721 11.5892 22.7542 11.8272 22.8072C13.7576 23.2314 15.2054 24.9613 15.2054 27.016C15.2054 27.1287 15.1988 27.2414 15.1922 27.3474Z" fill="#FFF100"/>
<path d="M22.4772 3.48636V21.4551L18.3321 20.9381C16.5736 18.7839 13.8962 17.4053 10.908 17.4053C6.41922 17.4053 2.64437 20.5139 1.60646 24.6962H0V3.48636C0 1.65702 1.48085 0.172329 3.30547 0.172329H19.1717C20.9963 0.172329 22.4772 1.65702 22.4772 3.48636Z" fill="white"/>
<path d="M6.88198 67.7786H3.30547C1.48085 67.7786 0 66.2939 0 64.4646V29.9986H1.79817C2.28738 31.5098 3.14019 32.8553 4.25744 33.9357L6.88198 67.7786Z" fill="white"/>
<path d="M22.477 33.2398V64.4646C22.477 66.2939 20.9961 67.7786 19.1715 67.7786H15.1719L17.803 33.8164L22.477 33.2398Z" fill="white"/>
<path d="M48.3526 27.3474L42.4623 28.0765L36.605 28.8056L19.6611 30.9133C20.2032 29.6937 20.4941 28.3615 20.4941 27.016C20.4941 25.9224 20.309 24.8354 19.9454 23.8146L36.605 25.8892L42.4623 26.6117L48.3526 27.3474Z" fill="white"/>
<path d="M15.0067 35.7054L11.0269 87L7.05371 35.8114C8.26351 36.3483 9.56587 36.6267 10.9079 36.6267C12.3557 36.6267 13.744 36.3152 15.0067 35.7054Z" fill="white"/>
<path d="M31.0908 2.04144V7.14505H36.6043V24.5504L42.4616 25.2794V7.14505H47.9752V2.04144H31.0908ZM36.6043 30.1444V31.8213H42.4616V29.4154L36.6043 30.1444Z" fill="white"/>
<path d="M55.1483 1.37864C54.0707 0.457337 53.3898 0 53.0923 0C52.7948 0 52.1007 0.463965 51.0099 1.39852C49.9191 2.33971 49.377 2.96937 49.377 3.29415C49.377 3.61892 49.9124 4.24196 50.99 5.16326C52.0676 6.09119 52.7485 6.54853 53.046 6.54853C53.3435 6.54853 54.0377 6.07794 55.1285 5.14338C56.2193 4.20882 56.7614 3.57916 56.7614 3.25438C56.7614 2.92298 56.2259 2.29994 55.1483 1.37864ZM56.292 26.9696C55.9548 26.1742 55.7829 25.0541 55.7829 23.6092V8.88824H50.1835V25.4385C50.1835 28.4145 51.2016 30.7145 53.2377 32.3317L57.9051 29.0574C57.1712 28.4609 56.6358 27.765 56.292 26.9696Z" fill="white"/>
<path d="M85.4919 26.9696C85.1481 26.1742 84.9762 25.0541 84.9762 23.6092V15.397C84.9762 13.8659 84.1102 12.3149 82.3715 10.7375C80.6328 9.16662 79.3305 8.37788 78.4644 8.37788C77.605 8.37788 76.0514 9.445 73.8169 11.566C73.0236 10.6911 72.151 9.93547 71.1858 9.31243C70.2272 8.6894 69.533 8.37788 69.1099 8.37788C68.4026 8.37788 67.1267 9.19976 65.2888 10.8435C64.8393 10.0216 64.1451 9.21301 63.213 8.41764L58.5391 11.6985C59.2795 12.2951 59.815 12.9844 60.1521 13.7798C60.4959 14.5751 60.6612 15.6953 60.6612 17.1402V31.8213H66.2672V14.7143C67.0539 14.0382 67.6291 13.6936 67.9861 13.6936C68.3365 13.6936 68.7662 13.9587 69.2752 14.4823C69.7843 15.0059 70.0421 15.5097 70.0421 15.9935V31.8213H75.6416V15.397C75.6416 15.2578 75.6151 15.0457 75.5556 14.7607C76.4349 14.0515 77.0365 13.6936 77.3604 13.6936C77.6843 13.6936 78.1074 13.9587 78.6165 14.4823C79.1255 15.0059 79.3767 15.5097 79.3767 15.9935V25.4385C79.3767 28.4145 80.3948 30.7145 82.431 32.3317L87.0983 29.0574C86.3645 28.4609 85.829 27.765 85.4919 26.9696Z" fill="white"/>
<path d="M104.882 20.2885C104.882 17.0275 104.683 14.9794 104.287 14.1443C103.89 13.3092 102.779 12.136 100.955 10.6314C99.1301 9.12685 97.7947 8.37788 96.9485 8.37788C96.0957 8.37788 94.7603 9.12685 92.9357 10.6314C91.1111 12.136 90.0004 13.3092 89.6038 14.1443C89.2071 14.9794 89.0088 17.054 89.0088 20.3548C89.0088 23.6622 89.2071 25.7302 89.6038 26.5653C90.0004 27.4004 91.1111 28.5736 92.9357 30.0782C94.7603 31.5827 96.1552 32.3317 97.1138 32.3317C98.079 32.3317 99.3417 31.8081 100.915 30.7542C102.482 29.707 103.652 28.4742 104.412 27.0558L100.042 23.9472C99.7053 24.9149 99.2359 25.7368 98.6409 26.4195C98.0459 27.0955 97.5567 27.4402 97.1601 27.4402C96.7634 27.4402 96.38 27.2612 96.0098 26.9033C95.6462 26.552 95.3883 26.2074 95.2495 25.8627C94.8264 24.8751 94.6149 23.523 94.6149 21.8196H104.882V20.2885ZM94.6149 17.7831C94.7272 16.2785 95.0247 15.1518 95.5007 14.3962C95.9833 13.6472 96.413 13.2694 96.7965 13.2694C97.1799 13.2694 97.5898 13.455 98.0261 13.8261C98.469 14.1907 98.793 14.5685 99.0045 14.9529C99.2161 15.3373 99.3615 16.2785 99.4475 17.7831H94.6149Z" fill="white"/>
<path d="M42.5477 59.3742C41.5561 60.4944 40.8619 61.0511 40.4652 61.0511C39.7579 61.0511 38.9513 60.3618 38.0456 58.9699C37.682 58.5126 37.4969 56.6567 37.4969 53.3957V49.399C37.4969 46.2175 37.682 44.3617 38.0456 43.8248C38.9513 42.4329 39.7579 41.7369 40.4652 41.7369C40.8619 41.7369 41.5561 42.3865 42.5477 43.6723C43.5327 44.9648 44.2599 46.3766 44.7095 47.9077L49.4165 44.6334C48.881 42.4727 47.6117 40.4975 45.6019 38.6947C43.5922 36.8918 41.8073 35.997 40.2537 35.997C39.348 35.997 37.9663 36.8454 36.1153 38.5488C34.2642 40.2456 33.0544 41.5977 32.4858 42.592C31.9239 43.5795 31.6396 45.853 31.6396 49.399V53.3957C31.6396 56.9417 31.9239 59.2085 32.4858 60.2027C33.0544 61.1969 34.2642 62.5424 36.1153 64.2459C37.9663 65.9493 39.348 66.7977 40.2537 66.7977C41.8073 66.7977 43.5922 65.9824 45.6019 64.3519C47.6117 62.7214 48.881 60.9252 49.4165 58.9699L44.7095 55.6492C44.2599 57.0146 43.5327 58.2541 42.5477 59.3742Z" fill="white"/>
<path d="M68.3038 60.7993V43.3542H64.1455L63.6364 45.906C61.4284 43.8646 59.8285 42.8438 58.8369 42.8438C58.1626 42.8438 57.0652 43.5928 55.5513 45.0974C54.0374 46.6019 53.0986 47.8215 52.7284 48.7561C52.3582 49.6906 52.1797 51.7122 52.1797 54.8207C52.1797 57.9293 52.3582 59.9442 52.7284 60.8854C53.0986 61.82 54.0374 63.0395 55.5513 64.5441C57.0652 66.0487 58.1626 66.7977 58.8369 66.7977C59.7757 66.7977 61.4152 65.651 63.762 63.3511C64.1323 64.0338 64.5818 64.6966 65.1173 65.3527C65.6594 66.0023 66.1089 66.4596 66.4791 66.7115L70.3003 63.4372C69.1367 62.6684 68.4756 61.7935 68.3038 60.7993ZM62.3804 59.8647C62.2019 60.1762 61.8052 60.5209 61.197 60.9053C60.5888 61.2897 60.126 61.482 59.8153 61.482C59.5046 61.482 59.1741 61.2897 58.8171 60.9053C58.4667 60.5209 58.2287 60.1895 58.1163 59.9045C57.7527 59.3941 57.5676 57.6973 57.5676 54.8207C57.5676 51.9442 57.7527 50.2474 58.1163 49.737C58.2287 49.4255 58.4667 49.0875 58.8171 48.7163C59.1741 48.3451 59.5046 48.1595 59.8153 48.1595C60.126 48.1595 60.5888 48.3517 61.197 48.7362C61.8052 49.1206 62.2085 49.4918 62.4068 49.8431C62.6051 50.201 62.7043 51.8779 62.7043 54.887C62.6712 57.8895 62.5655 59.5532 62.3804 59.8647Z" fill="white"/>
<path d="M89.2668 48.7561C88.8966 47.8215 87.9578 46.6019 86.4439 45.0974C84.93 43.5928 83.8326 42.8438 83.1517 42.8438C82.2196 42.8438 80.6528 43.8646 78.4447 45.906C77.7638 44.5207 77.03 43.5 76.2367 42.8438L71.5693 46.1181C72.9841 47.3111 73.6914 49.2532 73.6914 51.9508V70.0322C73.6914 73.0082 74.7095 75.3081 76.7457 76.9253L81.413 73.6445C80.6792 73.0546 80.1437 72.3586 79.7999 71.5632C79.4628 70.7679 79.2909 69.6477 79.2909 68.2028V64.4977C81.0164 66.0288 82.2658 66.7977 83.0261 66.7977C83.793 66.7977 84.93 66.0487 86.4439 64.5441C87.9578 63.0395 88.8966 61.82 89.2668 60.8854C89.6304 59.9442 89.8155 57.9293 89.8155 54.8207C89.8155 51.7122 89.6304 49.6906 89.2668 48.7561ZM83.8789 59.9045C83.2509 60.9517 82.7352 61.482 82.3253 61.482C81.9154 61.482 81.4064 61.2897 80.7982 60.9053C80.19 60.5209 79.7867 60.1563 79.5884 59.7984C79.3901 59.4471 79.2909 57.7769 79.2909 54.8009C79.2909 51.8182 79.3901 50.1612 79.5884 49.8232C79.7867 49.4785 80.1966 49.1206 80.818 48.7362C81.4461 48.3517 81.9022 48.1595 82.1997 48.1595C82.4972 48.1595 82.8079 48.3451 83.1319 48.7163C83.4558 49.0875 83.707 49.4255 83.8789 49.737C84.2425 50.3866 84.4276 52.0834 84.4276 54.8207C84.4276 57.5581 84.2425 59.2549 83.8789 59.9045Z" fill="white"/>
<path d="M105.966 55.9674C104.928 54.8473 103.798 53.9392 102.568 53.2433C101.338 52.5539 100.208 51.8779 99.1765 51.2283C98.1386 50.5722 97.6229 50.0883 97.6229 49.7768C97.6229 49.4653 97.8741 49.1206 98.3699 48.7362C98.8591 48.3517 99.2822 48.1595 99.6194 48.1595C100.267 48.1595 101.299 49.1537 102.72 51.1422L107.09 48.1198C106.323 46.7014 105.159 45.4685 103.586 44.4213C102.019 43.3674 100.717 42.8438 99.6855 42.8438C98.6476 42.8438 97.1734 43.6657 95.2496 45.3095C93.3258 46.9599 92.3606 48.3186 92.3606 49.399C92.3606 50.4727 92.7044 51.5398 93.3787 52.5871C94.0596 53.6343 94.8794 54.5225 95.8446 55.2449C96.8031 55.9674 97.7749 56.6236 98.7468 57.2002C99.7252 57.7835 100.552 58.2673 101.232 58.6518C101.913 59.0296 102.251 59.2814 102.251 59.3941C102.251 59.8183 101.894 60.2756 101.186 60.7529C100.479 61.2367 99.8904 61.482 99.4078 61.482C98.7534 61.482 97.7221 60.4877 96.3073 58.4993L91.9375 61.5217C92.7044 62.9401 93.8679 64.1729 95.4413 65.2202C97.0081 66.274 98.3237 66.7977 99.388 66.7977C100.446 66.7977 102.065 65.7836 104.247 63.7554C106.422 61.7272 107.513 60.2756 107.513 59.3941C107.513 58.2342 106.997 57.0875 105.966 55.9674Z" fill="white"/>
<path d="M120.074 43.3542V59.7321C118.831 60.8987 118.005 61.4819 117.615 61.4819C117.218 61.4819 116.789 61.2168 116.339 60.6932C115.883 60.1696 115.658 59.6659 115.658 59.182V43.3542H110.059V59.7785C110.059 61.3096 110.898 62.8606 112.584 64.4381C114.263 66.0089 115.532 66.7977 116.379 66.7977C117.231 66.7977 118.712 65.7902 120.834 63.7753L121.343 66.2873H125.674V43.3542H120.074Z" fill="white"/>
<path d="M135.603 61.4355C135.265 60.6402 135.094 59.52 135.094 58.0751V34.3798H129.494V59.9045C129.494 62.8805 130.512 65.1804 132.548 66.7976L137.216 63.5234C136.482 62.9269 135.946 62.2309 135.603 61.4355Z" fill="white"/>
<path d="M155 54.7545C155 51.4935 154.801 49.4454 154.405 48.6102C154.008 47.7751 152.898 46.6019 151.073 45.0974C149.248 43.5928 147.913 42.8438 147.06 42.8438C146.214 42.8438 144.878 43.5928 143.054 45.0974C141.229 46.6019 140.119 47.7751 139.722 48.6102C139.325 49.4454 139.127 51.52 139.127 54.8207C139.127 58.1281 139.325 60.1961 139.722 61.0312C140.119 61.8664 141.229 63.0395 143.054 64.5441C144.878 66.0487 146.267 66.7977 147.232 66.7977C148.191 66.7977 149.46 66.274 151.027 65.2202C152.6 64.1729 153.764 62.9401 154.53 61.5217L150.161 58.4132C149.817 59.3809 149.354 60.2027 148.759 60.8854C148.164 61.5615 147.668 61.9061 147.272 61.9061C146.875 61.9061 146.498 61.7272 146.128 61.3693C145.758 61.018 145.507 60.6733 145.361 60.3287C144.938 59.3411 144.726 57.989 144.726 56.2855H155V54.7545ZM144.726 52.2491C144.839 50.7445 145.136 49.6177 145.619 48.8621C146.101 48.1131 146.531 47.7353 146.915 47.7353C147.298 47.7353 147.708 47.9209 148.144 48.2921C148.581 48.6566 148.911 49.0344 149.123 49.4189C149.334 49.8033 149.48 50.7445 149.566 52.2491H144.726Z" fill="white"/>
</svg>
