<svg width="102" height="87" viewBox="0 0 102 87" fill="none" xmlns="http://www.w3.org/2000/svg">
<g clip-path="url(#clip0_953_3187)">
<path fill-rule="evenodd" clip-rule="evenodd" d="M58.1401 0C82.0201 0 101.39 19.36 101.39 43.25C101.39 67.14 82.0301 86.5 58.1401 86.5C34.2501 86.5 14.8901 67.14 14.8901 43.25C14.9001 19.36 34.2601 0 58.1401 0Z" fill="#FFB800"/>
<path d="M14.9102 16.0296V61.0096C14.9102 61.0096 23.2702 59.6796 32.0602 61.4296C34.8202 61.9696 37.6302 62.8396 40.2302 64.1296V26.9196C40.2202 26.9196 34.7902 13.9596 14.9102 16.0296ZM21.3402 25.3996C21.7302 25.3696 30.8702 24.7596 36.4502 30.5596C36.5902 30.6996 36.5902 30.9196 36.4402 31.0596C36.3702 31.1296 36.2802 31.1596 36.1902 31.1596C36.1002 31.1596 36.0002 31.1196 35.9302 31.0496C30.5702 25.4896 21.4802 26.1096 21.3902 26.1096C21.2002 26.1196 21.0202 25.9696 21.0002 25.7796C21.0002 25.5896 21.1502 25.4196 21.3402 25.3996ZM21.0102 34.9496C21.0002 34.7496 21.1502 34.5796 21.3402 34.5596C21.4302 34.5496 30.1802 33.9196 36.4402 39.6996C36.5902 39.8396 36.6002 40.0596 36.4602 40.2096C36.3902 40.2896 36.3002 40.3196 36.2002 40.3196C36.1102 40.3196 36.0302 40.2896 35.9602 40.2296C29.9302 34.6596 21.4802 35.2596 21.4002 35.2696C21.1902 35.2896 21.0402 35.1396 21.0102 34.9496ZM36.4402 44.1596C36.5902 44.2996 36.6002 44.5196 36.4602 44.6696C36.3902 44.7396 36.3002 44.7796 36.2002 44.7796C36.1102 44.7796 36.0302 44.7396 35.9602 44.6796C30.0202 39.1596 23.5502 39.4696 21.8702 39.6596C21.6102 39.6996 21.4602 39.7196 21.4502 39.7196C21.2602 39.7596 21.0702 39.6296 21.0302 39.4396C20.9902 39.2496 21.1202 39.0496 21.3102 39.0196C21.3202 39.0196 21.4002 38.9996 21.5602 38.9796C22.9502 38.7896 30.0102 38.1896 36.4402 44.1596ZM23.7302 43.6196C26.7402 43.7096 32.0402 44.5596 36.4502 48.8596C36.5902 48.9996 36.5902 49.2196 36.4602 49.3596C36.3902 49.4296 36.3002 49.4696 36.2002 49.4696C36.1102 49.4696 36.0202 49.4396 35.9602 49.3696C31.8902 45.3996 27.0102 44.4896 24.0702 44.3496C22.4802 44.2696 21.4602 44.4096 21.4302 44.4096C21.2302 44.4496 21.0502 44.3096 21.0202 44.1096C20.9902 43.9196 21.1202 43.7396 21.3202 43.6996C21.3502 43.7096 22.2702 43.5796 23.7302 43.6196ZM36.4502 53.8396C36.3802 53.8996 36.2902 53.9396 36.2002 53.9396C36.1102 53.9396 36.0102 53.8996 35.9402 53.8296C32.9102 50.5996 29.1502 49.3796 26.2202 48.9696C23.4802 48.5796 21.4702 48.8796 21.4302 48.8896C21.2402 48.9196 21.0502 48.7796 21.0202 48.5896C20.9802 48.3996 21.1202 48.2096 21.3102 48.1796C21.3502 48.1696 23.2402 47.8796 25.8602 48.1896C28.9702 48.5496 33.1302 49.7696 36.4602 53.3296C36.6002 53.4796 36.5902 53.6996 36.4502 53.8396ZM36.4502 35.5196C36.3802 35.5796 36.2902 35.6196 36.2002 35.6196C36.1102 35.6196 36.0102 35.5796 35.9402 35.5096C30.5802 29.8896 21.4902 30.5696 21.4002 30.5696C21.2202 30.5796 21.0402 30.4396 21.0102 30.2396C21.0002 30.0496 21.1502 29.8796 21.3402 29.8596C21.7302 29.8196 30.8702 29.1496 36.4602 35.0096C36.6002 35.1596 36.5902 35.3796 36.4502 35.5196Z" fill="#353535"/>
<path d="M35.0602 67.8297C22.0102 62.4897 8.97021 67.8297 8.97021 67.8297V18.4697C10.7802 18.5597 13.1002 20.9197 13.1002 20.9197L14.9102 24.7897L21.5502 38.9797C21.3902 38.9897 21.3102 39.0197 21.3002 39.0197C21.1102 39.0597 20.9902 39.2497 21.0202 39.4397C21.0602 39.6297 21.2502 39.7497 21.4402 39.7197C21.4502 39.7197 21.6002 39.6897 21.8602 39.6597L23.7202 43.6297C22.2602 43.5897 21.3402 43.7197 21.3202 43.7197C21.1202 43.7597 20.9902 43.9297 21.0202 44.1297C21.0502 44.3297 21.2302 44.4697 21.4302 44.4297C21.4602 44.4297 22.4802 44.2897 24.0702 44.3697L25.8602 48.1997C23.2402 47.8897 21.3602 48.1797 21.3102 48.1897C21.1202 48.2197 20.9802 48.3997 21.0202 48.5997C21.0502 48.7897 21.2302 48.9297 21.4302 48.8997C21.4702 48.8897 23.4802 48.5897 26.2202 48.9797L32.0502 61.4497L35.0602 67.8297Z" fill="#353535"/>
<path d="M4.66 23.5596H2.42C1.08 23.5596 0 24.6496 0 25.9796V72.1896C0 73.5296 1.08 74.6096 2.42 74.6096H34.82C34.82 74.6096 36.74 79.3796 40.3 79.3796C43.86 79.3796 45.78 74.9396 45.78 74.9396H77.5C78.84 74.9396 79.92 73.8596 79.92 72.5196V25.9796C79.92 24.6396 78.84 23.5596 77.5 23.5596H75.6V67.8896C75.6 69.1396 74.59 70.1396 73.35 70.1396H48.04C46.8 70.1396 45.73 70.9096 45.25 72.0496C44.6 73.6196 43.21 75.5696 40.3 75.5696C37.66 75.5696 36.19 73.4896 35.45 71.8996C34.95 70.8196 33.88 70.1296 32.69 70.1296H6.72C5.47 70.1296 4.46 69.1096 4.47 67.8696L4.66 23.5596Z" fill="#353535"/>
<path d="M51.6502 17.3498V25.6798L51.1902 26.3698C55.2402 25.1598 58.8502 25.3998 59.1002 25.4098C59.2902 25.4198 59.4402 25.5998 59.4302 25.7998C59.4202 25.9898 59.2502 26.1398 59.0402 26.1298C58.9802 26.1198 54.8602 25.8498 50.5302 27.3598L47.5202 31.8098L45.5902 30.0798C45.2102 30.3898 44.8502 30.7198 44.5002 31.0798C44.4302 31.1498 44.3402 31.1898 44.2402 31.1898C44.1402 31.1898 44.0602 31.1598 43.9902 31.0898C43.8502 30.9498 43.8502 30.7298 43.9802 30.5898C44.3202 30.2298 44.6802 29.8998 45.0502 29.5998L44.7902 29.3598V21.2298C41.4302 24.0598 40.2202 26.9498 40.2202 26.9498V64.1598C42.8202 62.8598 45.6202 62.0098 48.3802 61.4598C57.1602 59.6998 65.5302 61.0398 65.5302 61.0398V16.0298C59.7702 15.4298 55.2102 16.0898 51.6502 17.3498ZM43.9802 35.0098C49.5702 29.1398 58.7102 29.8198 59.0902 29.8598C59.2902 29.8698 59.4302 30.0498 59.4202 30.2398C59.4102 30.4398 59.2302 30.5798 59.0302 30.5698C58.9402 30.5598 49.8402 29.8898 44.4902 35.5098C44.4202 35.5898 44.3302 35.6198 44.2302 35.6198C44.1302 35.6198 44.0502 35.5798 43.9802 35.5198C43.8502 35.3798 43.8502 35.1598 43.9802 35.0098ZM44.0002 39.6998C50.2602 33.9198 59.0102 34.5598 59.1002 34.5598C59.3002 34.5698 59.4402 34.7498 59.4302 34.9498C59.4202 35.1398 59.2502 35.2898 59.0402 35.2698C58.9502 35.2598 50.5102 34.6598 44.4802 40.2298C44.4102 40.2898 44.3202 40.3198 44.2402 40.3198C44.1402 40.3198 44.0502 40.2798 43.9802 40.2098C43.8402 40.0598 43.8502 39.8398 44.0002 39.6998ZM59.0102 48.8798C58.9702 48.8698 56.9602 48.5698 54.2202 48.9598C51.2902 49.3698 47.5302 50.5898 44.4902 53.8198C44.4302 53.8898 44.3302 53.9298 44.2302 53.9298C44.1402 53.9298 44.0502 53.8898 43.9902 53.8298C43.8402 53.6898 43.8402 53.4698 43.9702 53.3298C47.3102 49.7698 51.4602 48.5598 54.5702 48.1898C57.2002 47.8798 59.0802 48.1698 59.1202 48.1798C59.3202 48.2098 59.4502 48.3898 59.4202 48.5898C59.3902 48.7798 59.2002 48.9098 59.0102 48.8798ZM59.0202 44.4198C58.9902 44.4198 57.9602 44.2798 56.3802 44.3598C53.4402 44.4998 48.5702 45.3998 44.4902 49.3798C44.4202 49.4498 44.3302 49.4798 44.2402 49.4798C44.1502 49.4798 44.0502 49.4398 43.9802 49.3698C43.8402 49.2298 43.8402 49.0098 43.9902 48.8698C48.4002 44.5698 53.7002 43.7198 56.7202 43.6298C58.1802 43.5898 59.1002 43.7198 59.1202 43.7198C59.3102 43.7598 59.4502 43.9298 59.4202 44.1298C59.3902 44.3198 59.2202 44.4598 59.0202 44.4198ZM59.1402 39.0198C59.3302 39.0598 59.4602 39.2498 59.4202 39.4398C59.3802 39.6298 59.1902 39.7498 59.0102 39.7198C59.0002 39.7198 58.8502 39.6898 58.5802 39.6598C56.8902 39.4698 50.4202 39.1698 44.4902 44.6798C44.4202 44.7398 44.3302 44.7798 44.2502 44.7798C44.1502 44.7798 44.0602 44.7398 43.9902 44.6698C43.8502 44.5198 43.8702 44.2998 44.0102 44.1598C50.4502 38.1898 57.5002 38.7898 58.9002 38.9898C59.0502 38.9998 59.1302 39.0198 59.1402 39.0198Z" fill="#353535"/>
<path d="M71.4699 18.4697V67.8297C71.4699 67.8297 58.4299 62.4897 45.3799 67.8297L48.3799 61.4197L54.2199 48.9497C56.9499 48.5597 58.9599 48.8597 59.0099 48.8697C59.1999 48.8997 59.3899 48.7597 59.4199 48.5697C59.4499 48.3797 59.3199 48.1897 59.1199 48.1597C59.0799 48.1497 57.1999 47.8597 54.5699 48.1697L56.3699 44.3397C57.9499 44.2597 58.9799 44.3997 59.0099 44.3997C59.2099 44.4397 59.3799 44.2997 59.4199 44.0997C59.4499 43.9097 59.3099 43.7297 59.1199 43.6897C59.0899 43.6797 58.1699 43.5497 56.7199 43.5997L58.5799 39.6297C58.8499 39.6697 58.9999 39.6897 59.0099 39.6897C59.1999 39.7297 59.3899 39.5997 59.4199 39.4097C59.4599 39.2197 59.3299 39.0197 59.1399 38.9897C59.1299 38.9897 59.0499 38.9697 58.8899 38.9497L65.5399 24.7397L67.3499 20.8797C67.3399 20.9197 69.6699 18.5697 71.4699 18.4697Z" fill="#353535"/>
</g>
<defs>
<clipPath id="clip0_953_3187">
<rect width="101.39" height="86.49" fill="white"/>
</clipPath>
</defs>
</svg>
