<svg width="104" height="87" viewBox="0 0 104 87" fill="none" xmlns="http://www.w3.org/2000/svg">
<path fill-rule="evenodd" clip-rule="evenodd" d="M60.6201 0C84.5001 0 103.87 19.36 103.87 43.25C103.87 67.14 84.5101 86.5 60.6201 86.5C36.7301 86.5 17.3701 67.14 17.3701 43.25C17.3701 19.36 36.7301 0 60.6201 0Z" fill="#FFB800"/>
<path fill-rule="evenodd" clip-rule="evenodd" d="M82.94 63.1102H2.3V73.1502H82.94V63.1102ZM14.83 69.9302H11.09V66.1802H14.83V69.9302ZM4.98 70.8602V65.2502L9.05 68.0502L4.98 70.8602ZM19.62 70.6602H17.32V65.4502H19.62V70.6602ZM23.37 70.6602H21.07V65.4502H23.37V70.6602ZM41.97 69.2102C41.53 70.2302 40.51 70.9302 39.34 70.9302C38.16 70.9302 37.15 70.2202 36.71 69.2102H28.21V66.9102H36.71C37.15 65.8902 38.16 65.1902 39.34 65.1902C40.52 65.1902 41.53 65.9002 41.97 66.9102H80.2V69.2102H41.97ZM0 61.9502V12.8002C0 12.1702 0.52 11.6602 1.15 11.6602H84.09C84.72 11.6602 85.24 12.1702 85.24 12.8002V61.9502V61.9602V74.2902C85.24 74.9302 84.73 75.4402 84.09 75.4402H1.15C0.52 75.4402 0 74.9302 0 74.2902V61.9502ZM37.08 47.4302C36.97 47.4302 36.86 47.4002 36.77 47.3402C36.58 47.2302 36.46 47.0302 36.46 46.8002V27.2902C36.46 27.0702 36.58 26.8602 36.77 26.7502C36.96 26.6402 37.2 26.6402 37.39 26.7502L54.29 36.5102C54.48 36.6202 54.6 36.8302 54.6 37.0502C54.6 37.2702 54.48 37.4802 54.29 37.5902L37.39 47.3402C37.3 47.3902 37.19 47.4302 37.08 47.4302Z" fill="#353535"/>
</svg>
